<svg
  width="31"
  height="29"
  viewBox="0 0 31 29"
  fill="none"
  xmlns="http://www.w3.org/2000/svg"
>
  <style>
    @media (prefers-color-scheme: dark) {
      path {
        fill: white;
      }
    }
  </style>

  <path
    fill-rule="evenodd"
    clip-rule="evenodd"
    d="M13.4158 7.86356C13.527 7.26859 13.3878 6.6138 12.9799 6.07341C12.2409 5.09402 10.8975 4.85942 9.97904 5.55252C9.06067 6.24562 8.91785 7.60181 9.65697 8.58121C10.0917 9.15715 10.7349 9.4754 11.378 9.49909L12.074 19.1619L12.0749 19.1746L12.0875 19.1764L17.6171 19.973L17.6236 19.974L17.6289 19.97L21.7457 16.8631L21.751 16.8591L21.7519 16.8526L22.5023 11.3166L22.504 11.3041L22.4923 11.2997L13.4158 7.86356ZM25.8204 5.17163C25.473 5.0174 25.1552 4.77192 24.9062 4.44192C24.1617 3.45549 24.3118 2.08516 25.2439 1.38165C26.1762 0.678141 27.5351 0.9097 28.2796 1.89613C29.024 2.88255 28.874 4.25288 27.9417 4.95639C27.7242 5.12053 27.4834 5.23379 27.2326 5.29842L27.237 5.30588L27.2382 5.30784L27.2387 5.31004C27.5547 6.56314 28.0568 8.50194 28.5363 10.2455C28.7759 11.1173 29.01 11.9402 29.2122 12.6042C29.4145 13.2687 29.5847 13.7728 29.6967 14.0078L29.7079 14.0313L29.6819 14.0304C29.642 14.0289 29.5776 14.0377 29.4856 14.0607C29.3938 14.0836 29.2755 14.1202 29.1278 14.1735C28.8325 14.28 28.4209 14.4529 27.8716 14.715C26.7729 15.2393 25.1246 16.12 22.7572 17.5395L22.7282 17.5569L22.7334 17.5235C23.0047 15.8274 23.6256 12.1451 23.9381 10.9905C24.2505 9.83631 25.2993 6.67302 25.7845 5.23605L25.7849 5.23484L25.7855 5.23372C25.7962 5.21333 25.8079 5.19256 25.8204 5.17163ZM12.7485 26.7009L12.7354 26.6931C10.6468 25.4473 6.19013 22.7741 5.07415 22.0491C5.06005 22.04 5.04627 22.0309 5.03276 22.0218C4.899 22.2666 4.71392 22.4859 4.47938 22.663C3.54717 23.3664 2.18825 23.1349 1.44381 22.1485C0.699379 21.162 0.849391 19.7917 1.7816 19.0882C2.7138 18.3847 4.07272 18.6162 4.81716 19.6027C5.03856 19.8961 5.18083 20.2233 5.24696 20.5569C5.25696 20.5531 5.26688 20.5494 5.27671 20.5459L5.27896 20.5451L5.28135 20.545C6.87107 20.4779 10.4132 20.3588 11.8598 20.4195C13.3067 20.4803 16.5506 20.9321 17.9911 21.1503L18.0237 21.1553L17.9995 21.1775C14.6697 24.2434 13.1166 26.1295 12.7567 26.6881L12.7485 26.7009ZM15.4223 28.9105L15.4096 28.8995L13.5675 27.3224L13.5552 27.312L13.5659 27.2999C14.9757 25.7123 18.4537 22.0399 21.0857 20.0535C23.7286 17.9659 28.0695 15.792 29.9093 14.966L29.9233 14.9598L29.93 14.9736L30.9759 17.1515L30.9831 17.1663L30.9681 17.1728C29.5659 17.7852 25.9205 19.6095 22.5591 22.0067C19.1984 24.4035 16.4074 27.5992 15.4324 28.897L15.4223 28.9105Z"
    fill="#212121"
  />
</svg>
