<svg width="128" height="128" viewBox="0 0 128 128" fill="none" xmlns="http://www.w3.org/2000/svg">
<mask id="mask0_442_15" style="mask-type:luminance" maskUnits="userSpaceOnUse" x="18" y="1" width="92" height="126">
<path d="M18.8 1H109.3V127H18.8V1Z" fill="white"/>
</mask>
<g mask="url(#mask0_442_15)">
<path fill-rule="evenodd" clip-rule="evenodd" d="M21.1001 68.6999C21.3001 72.1999 24.8001 70.5999 26.4001 69.4999C27.9001 68.3999 28.4001 69.2999 28.5001 67.1999C28.6001 65.7999 28.7001 64.4999 28.7001 63.0999C26.4001 62.8999 23.9001 63.3999 22.0001 64.7999C21.1001 65.4999 19.2001 67.7999 21.1001 68.6999Z" fill="#F6D2A2"/>
</g>
<mask id="mask1_442_15" style="mask-type:luminance" maskUnits="userSpaceOnUse" x="18" y="1" width="92" height="126">
<path d="M18.8 1H109.3V127H18.8V1Z" fill="white"/>
</mask>
<g mask="url(#mask1_442_15)">
<path d="M23.0001 71.2C22.3001 71.2 21.0001 70.9001 20.8001 68.9001C20.2001 68.5001 20.0001 68 20.0001 67.7C19.9001 66.5 21.2001 65.1 21.9001 64.6C23.5001 63.4 25.6001 62.8 27.8001 62.8H29.1001V63.1C29.2001 64.2 29.1001 65.3001 29.0001 66.3001C29.0001 66.6001 29.0001 66.9 28.9001 67.2C28.8001 68.7 28.5001 68.9 27.8001 69.2C27.5001 69.3 27.2001 69.4001 26.7001 69.8001C26.2001 70.1001 24.5001 71.2 23.0001 71.2ZM27.8001 63.4001C25.7001 63.4001 23.8001 64 22.3001 65.1C21.6001 65.6 20.6001 66.8 20.7001 67.6C20.7001 67.9 20.9001 68.2001 21.3001 68.4001L21.5001 68.5V68.7C21.6001 70.3 22.4001 70.5 23.0001 70.5C24.0001 70.5 25.4001 69.8 26.3001 69.2C26.9001 68.8 27.3001 68.7 27.6001 68.6C28.1001 68.4 28.2001 68.4 28.3001 67.2C28.3001 66.9 28.3001 66.6001 28.4001 66.3001C28.5001 65.4001 28.5001 64.4 28.5001 63.5C28.2001 63.4 28.0001 63.4001 27.8001 63.4001Z" fill="black"/>
</g>
<mask id="mask2_442_15" style="mask-type:luminance" maskUnits="userSpaceOnUse" x="18" y="1" width="92" height="126">
<path d="M18.8 1H109.3V127H18.8V1Z" fill="white"/>
</mask>
<g mask="url(#mask2_442_15)">
<path fill-rule="evenodd" clip-rule="evenodd" d="M21.1001 68.6999C21.6001 68.4999 22.2001 68.3999 22.5001 67.8999Z" fill="#C6B198"/>
</g>
<mask id="mask3_442_15" style="mask-type:luminance" maskUnits="userSpaceOnUse" x="18" y="1" width="92" height="126">
<path d="M18.8 1H109.3V127H18.8V1Z" fill="white"/>
</mask>
<g mask="url(#mask3_442_15)">
<path d="M21.1001 69C21.0001 69 20.8001 68.9 20.8001 68.8C20.7001 68.6 20.8001 68.4 21.0001 68.4C21.1001 68.4 21.2001 68.3 21.2001 68.3C21.6001 68.1 22.0001 68 22.2001 67.7C22.3001 67.6 22.5001 67.5 22.7001 67.6C22.8001 67.7 22.9001 67.9 22.8001 68.1C22.4001 68.6 21.9001 68.8 21.5001 68.9L21.3001 69H21.1001Z" fill="black"/>
</g>
<mask id="mask4_442_15" style="mask-type:luminance" maskUnits="userSpaceOnUse" x="18" y="1" width="92" height="126">
<path d="M18.8 1H109.3V127H18.8V1Z" fill="white"/>
</mask>
<g mask="url(#mask4_442_15)">
<path fill-rule="evenodd" clip-rule="evenodd" d="M29.3001 26.3999C15.7001 22.5999 25.8001 5.29991 36.7001 12.3999L29.3001 26.3999Z" fill="#6AD7E5"/>
</g>
<mask id="mask5_442_15" style="mask-type:luminance" maskUnits="userSpaceOnUse" x="18" y="1" width="92" height="126">
<path d="M18.8 1H109.3V127H18.8V1Z" fill="white"/>
</mask>
<g mask="url(#mask5_442_15)">
<path d="M29.5 26.7999L29.2 26.6999C22.2 24.6999 22.3 19.6999 22.5 18.1999C23 14.3999 26.6 10.3999 31.4 10.3999C33.3 10.3999 35.1 10.9999 36.9 12.1999L37.2 12.3999L29.5 26.7999ZM31.4 11.0999C26.9 11.0999 23.6 14.7999 23.1 18.2999C22.6 21.8999 24.8 24.6999 29.1 25.9999L36.2 12.4999C34.7 11.5999 33.1 11.0999 31.4 11.0999Z" fill="black"/>
</g>
<mask id="mask6_442_15" style="mask-type:luminance" maskUnits="userSpaceOnUse" x="18" y="1" width="92" height="126">
<path d="M18.8 1H109.3V127H18.8V1Z" fill="white"/>
</mask>
<g mask="url(#mask6_442_15)">
<path fill-rule="evenodd" clip-rule="evenodd" d="M89.6001 11.1C100.3 3.59997 110.1 20.6 97.6001 24.9L89.6001 11.1Z" fill="#6AD7E5"/>
</g>
<mask id="mask7_442_15" style="mask-type:luminance" maskUnits="userSpaceOnUse" x="18" y="1" width="92" height="126">
<path d="M18.8 1H109.3V127H18.8V1Z" fill="white"/>
</mask>
<g mask="url(#mask7_442_15)">
<path d="M97.5001 25.3L89.2001 11L89.5001 10.8C91.4001 9.50005 93.3001 8.80005 95.2001 8.80005C99.8001 8.80005 103.1 12.6 103.8 16.3C104.1 17.8 104.4 22.9 97.8001 25.1L97.5001 25.3ZM90.1001 11.3L97.8001 24.6C101.7 23.2 103.7 20.2 103.1 16.6C102.5 13.2 99.4001 9.70005 95.2001 9.70005C93.5001 9.60005 91.8001 10.1 90.1001 11.3Z" fill="black"/>
</g>
<mask id="mask8_442_15" style="mask-type:luminance" maskUnits="userSpaceOnUse" x="18" y="1" width="92" height="126">
<path d="M18.8 1H109.3V127H18.8V1Z" fill="white"/>
</mask>
<g mask="url(#mask8_442_15)">
<path fill-rule="evenodd" clip-rule="evenodd" d="M92 112.3C94.7 114 99.7 119.1 95.6 121.6C91.7 125.2 89.5 117.6 86 116.6C87.5 114.6 89.4 112.7 92 112.3Z" fill="#F6D2A2"/>
</g>
<mask id="mask9_442_15" style="mask-type:luminance" maskUnits="userSpaceOnUse" x="18" y="1" width="92" height="126">
<path d="M18.8 1H109.3V127H18.8V1Z" fill="white"/>
</mask>
<g mask="url(#mask9_442_15)">
<path d="M93.5 122.9C91.9 122.9 90.5 121.3 89.3 119.8C88.2 118.6 87.1 117.3 85.9 116.9L85.4 116.8L85.7 116.4C86.9 114.7 88.9 112.5 91.9 112H92L92.1 112.1C93.8 113.2 97.5 116.3 97.4 119.2C97.4 120.3 96.8 121.2 95.7 121.9C95 122.6 94.3 122.9 93.5 122.9ZM86.5 116.4C87.7 116.9 88.7 118.2 89.7 119.3C90.9 120.8 92.1 122.1 93.4 122.1C94 122.1 94.6 121.8 95.2 121.2H95.3C96.2 120.6 96.7 119.9 96.7 119C96.7 116.7 93.8 113.8 91.8 112.5C90 113 88.2 114.2 86.5 116.4ZM95.6 121.9C95.5 121.9 95.4 121.8 95.3 121.7C95.1 121.3 94.9 120.8 94.8 120.4C94.5 119.6 94.2 118.8 93.6 118.2C93.5 118.1 93.5 117.9 93.6 117.7C93.7 117.6 93.9 117.6 94.1 117.7C94.8 118.4 95.2 119.3 95.5 120.2L96 121.4C96.1 121.6 96 121.8 95.9 121.9H95.6Z" fill="black"/>
</g>
<mask id="mask10_442_15" style="mask-type:luminance" maskUnits="userSpaceOnUse" x="18" y="1" width="92" height="126">
<path d="M18.8 1H109.3V127H18.8V1Z" fill="white"/>
</mask>
<g mask="url(#mask10_442_15)">
<path fill-rule="evenodd" clip-rule="evenodd" d="M43.2001 118.1C40.0001 118.6 38.2001 121.5 35.5001 123C33.0001 124.5 32.0001 122.5 31.8001 122.1C31.4001 121.9 31.4001 122.3 30.8001 121.7C28.5001 118 33.2001 115.3 35.7001 113.5C39.2001 112.7 41.4001 115.7 43.2001 118.1Z" fill="#F6D2A2"/>
</g>
<mask id="mask11_442_15" style="mask-type:luminance" maskUnits="userSpaceOnUse" x="18" y="1" width="92" height="126">
<path d="M18.8 1H109.3V127H18.8V1Z" fill="white"/>
</mask>
<g mask="url(#mask11_442_15)">
<path d="M33.8 123.8C32.5 123.8 31.8 122.7 31.6 122.3H31.5C31.2 122.3 31 122.2 30.6 121.8V121.7C28.4 118.2 32.2 115.5 34.7 113.7L35.6 113.1H35.8C36.2 113 36.5 113 36.9 113C39.9 113 41.8 115.6 43.4 117.7L43.9 118.4L43.3 118.5C41.4 118.8 40 120 38.6 121.2C37.7 122 36.8 122.7 35.8 123.3C35 123.6 34.4 123.8 33.8 123.8ZM31.6 121.7C31.7 121.7 31.8 121.7 32 121.8H32.1L32.2 121.9C32.4 122.2 32.9 123.1 33.9 123.1C34.4 123.1 34.9 122.9 35.4 122.6C36.4 122.1 37.3 121.3 38.1 120.6C39.4 119.5 40.8 118.3 42.6 117.8C41.1 115.8 39.3 113.6 36.8 113.6C36.5 113.6 36.2 113.6 35.9 113.7L35.1 114.3C32.5 116.1 29.3 118.4 31.2 121.4C31.3 121.6 31.4 121.7 31.6 121.7ZM31.8 122.4C31.6 122.4 31.4 122.2 31.5 122C31.6 121 32.1 120.3 32.6 119.5C32.9 119.1 33.1 118.7 33.3 118.3C33.4 118.1 33.6 118.1 33.7 118.1C33.9 118.2 33.9 118.4 33.9 118.5C33.7 119 33.4 119.4 33.1 119.8C32.6 120.5 32.2 121.1 32.1 121.9C32.1 122.3 32 122.4 31.8 122.4Z" fill="black"/>
</g>
<mask id="mask12_442_15" style="mask-type:luminance" maskUnits="userSpaceOnUse" x="18" y="1" width="92" height="126">
<path d="M18.8 1H109.3V127H18.8V1Z" fill="white"/>
</mask>
<g mask="url(#mask12_442_15)">
<path fill-rule="evenodd" clip-rule="evenodd" d="M29.9001 21.7C28.1001 20.8 26.8001 19.5 27.9001 17.4C28.9001 15.5 30.8001 15.7 32.6001 16.6L29.9001 21.7ZM94.8001 19.9C96.6001 19 97.9001 17.7 96.8001 15.6C95.8001 13.7 93.9001 13.9 92.1001 14.8L94.8001 19.9Z" fill="black"/>
</g>
<mask id="mask13_442_15" style="mask-type:luminance" maskUnits="userSpaceOnUse" x="18" y="1" width="92" height="126">
<path d="M18.8 1H109.3V127H18.8V1Z" fill="white"/>
</mask>
<g mask="url(#mask13_442_15)">
<path fill-rule="evenodd" clip-rule="evenodd" d="M107.1 68.1999C106.9 71.6999 103.4 70.0999 101.8 68.9999C100.3 67.8999 99.8 68.7999 99.7 66.6999C99.6 65.2999 99.5 63.9999 99.5 62.5999C101.8 62.3999 104.3 62.8999 106.2 64.2999C107.2 65.0999 109 67.2999 107.1 68.1999Z" fill="#F6D2A2"/>
</g>
<mask id="mask14_442_15" style="mask-type:luminance" maskUnits="userSpaceOnUse" x="18" y="1" width="92" height="126">
<path d="M18.8 1H109.3V127H18.8V1Z" fill="white"/>
</mask>
<g mask="url(#mask14_442_15)">
<path d="M105.3 70.7C103.8 70.7 102.1 69.6001 101.6 69.3001C101.1 69.0001 100.8 68.8 100.5 68.7C99.7001 68.4 99.5001 68.2 99.4001 66.7C99.4001 66.4 99.4001 66.1001 99.3001 65.8001C99.2001 64.8001 99.1001 63.7 99.2001 62.6V62.3H100.5C102.7 62.3 104.8 62.9 106.4 64.1C107.1 64.6 108.4 66 108.3 67.2C108.3 67.6 108.1 68.1001 107.5 68.4001C107.3 70.4001 106 70.7 105.3 70.7ZM99.8001 63C99.8001 63.9 99.8001 64.9001 99.9001 65.8001C99.9001 66.1001 99.9001 66.4 100 66.7C100.1 67.9 100.2 67.9 100.7 68.1C101 68.2 101.4 68.4 102 68.7C102.9 69.3 104.3 70 105.3 70C105.9 70 106.7 69.8 106.8 68.2V68L107 67.9001C107.4 67.7001 107.6 67.5 107.6 67.1C107.7 66.3 106.7 65.1 106 64.6C104.5 63.5 102.5 62.9001 100.5 62.9001C100.3 63.0001 100.1 63 99.8001 63Z" fill="black"/>
</g>
<mask id="mask15_442_15" style="mask-type:luminance" maskUnits="userSpaceOnUse" x="18" y="1" width="92" height="126">
<path d="M18.8 1H109.3V127H18.8V1Z" fill="white"/>
</mask>
<g mask="url(#mask15_442_15)">
<path fill-rule="evenodd" clip-rule="evenodd" d="M107.1 68.1999C106.6 67.9999 106 67.8999 105.7 67.3999Z" fill="#C6B198"/>
</g>
<mask id="mask16_442_15" style="mask-type:luminance" maskUnits="userSpaceOnUse" x="18" y="1" width="92" height="126">
<path d="M18.8 1H109.3V127H18.8V1Z" fill="white"/>
</mask>
<g mask="url(#mask16_442_15)">
<path d="M107.1 68.6H107L106.8 68.5C106.3 68.3 105.8 68.2 105.5 67.7C105.4 67.6 105.4 67.3 105.6 67.2C105.7 67.1 106 67.1 106.1 67.3C106.3 67.6 106.7 67.7 107.1 67.9C107.2 67.9 107.3 68 107.3 68C107.5 68.1 107.6 68.3 107.5 68.4C107.4 68.5 107.2 68.6 107.1 68.6Z" fill="black"/>
</g>
<mask id="mask17_442_15" style="mask-type:luminance" maskUnits="userSpaceOnUse" x="18" y="1" width="92" height="126">
<path d="M18.8 1H109.3V127H18.8V1Z" fill="white"/>
</mask>
<g mask="url(#mask17_442_15)">
<path fill-rule="evenodd" clip-rule="evenodd" d="M62.8 4C76.4 4 89.1 5.9 95.8 19C101.8 33.6 99.6 49.4 100.6 64.9C101.4 78.2 103.1 93.5 97 105.8C90.5 118.7 74.3 122 61 121.5C50.5 121.1 37.9 117.7 31.9 108.1C25 96.9 28.2 80.2 28.7 67.7C29.3 52.9 24.7 38 29.6 23.6C34.5 8.5 48.1 5.1 62.8 4Z" fill="#6AD7E5"/>
</g>
<mask id="mask18_442_15" style="mask-type:luminance" maskUnits="userSpaceOnUse" x="18" y="1" width="92" height="126">
<path d="M18.8 1H109.3V127H18.8V1Z" fill="white"/>
</mask>
<g mask="url(#mask18_442_15)">
<path d="M63.3 121.9H60.8C56.7 121.8 50.5 121.1 44.4 118.6C38.5 116.2 34.2 112.8 31.4 108.3C25.8 99.1999 26.8 86.6999 27.7 75.5999C27.9 72.7999 28.1 70.1999 28.2 67.6999C28.4 62.4999 28 57.0999 27.5 51.9999C26.7 42.5999 25.9 32.8999 29 23.4999C31.4 16.4999 35.7 11.4999 42.2 8.2999C47.3 5.7999 53.6 4.3999 62.6 3.6999C76 3.5999 89.3 5.4999 96 18.7999C100.4 29.4999 100.4 40.9999 100.5 52.0999C100.5 56.2999 100.5 60.5999 100.8 64.7999C100.9 66.0999 101 67.3999 101 68.6999C101.8 80.8999 102.7 94.6999 97.1 105.9C94.3 111.6 89.4 115.8 82.7 118.5C77.3 120.7 70.5 121.9 63.3 121.9ZM62.8 4.2999C48.7 5.3999 34.9 8.49991 29.8 23.6999C26.7 32.9999 27.5 42.5999 28.3 51.8999C28.7 57.0999 29.2 62.3999 29 67.6999C28.9 70.1999 28.7 72.7999 28.5 75.5999C27.6 86.5999 26.6 98.9999 32.1 107.9C34.4 111.6 41.8001 120.4 60.9001 121.1H63.4001C85.5001 121.1 93.7 111.3 96.7 105.5C102.2 94.4999 101.3 80.6999 100.6 68.5999C100.5 67.2999 100.4 65.9999 100.4 64.6999C100.2 60.4999 100.1 56.1999 100.1 51.9999C100 40.9999 100 29.4999 95.7 18.8999C92.7 12.9999 88.2 8.9999 82 6.6999C75.6 4.5999 68.4 4.2999 62.8 4.2999Z" fill="black"/>
</g>
<mask id="mask19_442_15" style="mask-type:luminance" maskUnits="userSpaceOnUse" x="18" y="1" width="92" height="126">
<path d="M18.8 1H109.3V127H18.8V1Z" fill="white"/>
</mask>
<g mask="url(#mask19_442_15)">
<path fill-rule="evenodd" clip-rule="evenodd" d="M65.2 22.2C67.6 36.4 90.8 32.6 87.5 18.3C84.5 5.49999 64.4 9.09999 65.2 22.2Z" fill="white"/>
</g>
<mask id="mask20_442_15" style="mask-type:luminance" maskUnits="userSpaceOnUse" x="18" y="1" width="92" height="126">
<path d="M18.8 1H109.3V127H18.8V1Z" fill="white"/>
</mask>
<g mask="url(#mask20_442_15)">
<path d="M76.2001 31.5001C71.7001 31.5001 66.0001 29.1001 64.8001 22.3001C64.6001 19.1001 65.6001 16.2001 67.7001 14.0001C70.0001 11.5001 73.5001 10.1001 77.1001 10.1001C81.3001 10.1001 86.3001 12.3001 87.7001 18.4001C88.5001 21.8001 87.9001 24.8001 86.0001 27.2001C83.9001 29.8001 80.2001 31.5001 76.2001 31.5001ZM65.5001 22.2001C66.0001 25.0001 67.3001 27.2001 69.4001 28.8001C71.2001 30.2001 73.7001 30.9001 76.2001 30.9001C79.9001 30.9001 83.5001 29.3001 85.5001 26.8001C87.3001 24.6001 87.8001 21.7001 87.1001 18.5001C85.8001 12.8001 81.1001 10.8001 77.1001 10.8001C73.7001 10.8001 70.4001 12.2001 68.2001 14.5001C66.3001 16.5001 65.3001 19.2001 65.5001 22.2001Z" fill="black"/>
</g>
<mask id="mask21_442_15" style="mask-type:luminance" maskUnits="userSpaceOnUse" x="18" y="1" width="92" height="126">
<path d="M18.8 1H109.3V127H18.8V1Z" fill="white"/>
</mask>
<g mask="url(#mask21_442_15)">
<path fill-rule="evenodd" clip-rule="evenodd" d="M37.5001 24.4999C40.7001 36.7999 60.4001 33.6999 59.7001 21.2999C58.8001 6.49994 34.4001 9.29994 37.5001 24.4999Z" fill="white"/>
</g>
<mask id="mask22_442_15" style="mask-type:luminance" maskUnits="userSpaceOnUse" x="18" y="1" width="92" height="126">
<path d="M18.8 1H109.3V127H18.8V1Z" fill="white"/>
</mask>
<g mask="url(#mask22_442_15)">
<path d="M48 32.7C43.7 32.7 38.7 30.6 37.1 24.6C36.4 21.1 37.1 17.9 39.1 15.5C41.3 12.8 44.9 11.2 48.8 11.2C54 11.2 59.5 14.3 59.9 21.3C60.1 24.2 59.2 26.8 57.2 28.9C55.1 31.2 51.6 32.7 48 32.7ZM48.8 11.9C45.1 11.9 41.7 13.4 39.6 15.9C37.7 18.2 37.1 21.1 37.8 24.4C39.2 30 44 32 48 32C51.4 32 54.7 30.7 56.8 28.4C58.6 26.5 59.5 24 59.3 21.3C59.1 17 56.2 11.9 48.8 11.9Z" fill="black"/>
</g>
<mask id="mask23_442_15" style="mask-type:luminance" maskUnits="userSpaceOnUse" x="18" y="1" width="92" height="126">
<path d="M18.8 1H109.3V127H18.8V1Z" fill="white"/>
</mask>
<g mask="url(#mask23_442_15)">
<path fill-rule="evenodd" clip-rule="evenodd" d="M68 39.1999C68 40.9999 68.4 43.0999 68.1 45.0999C67.6 45.9999 66.7 46.0999 65.9 46.3999C64.8 46.1999 63.9 45.4999 63.4 44.4999C63.1 42.2999 63.5 40.0999 63.6 37.8999L68 39.1999Z" fill="white"/>
</g>
<mask id="mask24_442_15" style="mask-type:luminance" maskUnits="userSpaceOnUse" x="18" y="1" width="92" height="126">
<path d="M18.8 1H109.3V127H18.8V1Z" fill="white"/>
</mask>
<g mask="url(#mask24_442_15)">
<path d="M65.9001 46.8001C64.6001 46.6001 63.6001 45.8001 63.1001 44.7001C62.9001 43.1001 63.0001 41.6001 63.1001 40.1001C63.2001 39.4001 63.2001 38.7001 63.2001 38.0001V37.6001L68.3001 39.2001V39.4001C68.3001 40.0001 68.4001 40.6001 68.4001 41.3001C68.5001 42.6001 68.6001 44.0001 68.4001 45.3001V45.4001C68.0001 46.2001 67.3001 46.4001 66.6001 46.7001C66.4001 46.6001 66.2001 46.7001 65.9001 46.8001ZM63.7001 44.4001C64.1001 45.3001 64.9001 45.9001 65.8001 46.1001C66.0001 46.0001 66.2001 46.0001 66.3001 45.9001C66.9001 45.7001 67.4001 45.5001 67.7001 45.0001C67.9001 43.8001 67.8001 42.5001 67.7001 41.2001C67.7001 40.6001 67.6001 40.0001 67.6001 39.5001L63.8001 38.3001C63.8001 38.9001 63.7001 39.5001 63.7001 40.0001C63.6001 41.6001 63.5001 43.0001 63.7001 44.4001Z" fill="black"/>
</g>
<mask id="mask25_442_15" style="mask-type:luminance" maskUnits="userSpaceOnUse" x="18" y="1" width="92" height="126">
<path d="M18.8 1H109.3V127H18.8V1Z" fill="white"/>
</mask>
<g mask="url(#mask25_442_15)">
<path fill-rule="evenodd" clip-rule="evenodd" d="M46.3001 22.4999C46.3001 24.4999 44.8001 26.0999 43.0001 26.0999C41.2001 26.0999 39.7001 24.4999 39.7001 22.4999C39.7001 20.4999 41.2001 18.8999 43.0001 18.8999C44.8001 18.8999 46.3001 20.4999 46.3001 22.4999Z" fill="black"/>
</g>
<mask id="mask26_442_15" style="mask-type:luminance" maskUnits="userSpaceOnUse" x="18" y="1" width="92" height="126">
<path d="M18.8 1H109.3V127H18.8V1Z" fill="white"/>
</mask>
<g mask="url(#mask26_442_15)">
<path fill-rule="evenodd" clip-rule="evenodd" d="M45.2001 23.2999C45.2001 23.7999 44.8001 24.1999 44.4001 24.1999C44.0001 24.1999 43.6001 23.7999 43.6001 23.2999C43.6001 22.7999 44.0001 22.3999 44.4001 22.3999C44.9001 22.3999 45.2001 22.7999 45.2001 23.2999Z" fill="white"/>
</g>
<mask id="mask27_442_15" style="mask-type:luminance" maskUnits="userSpaceOnUse" x="18" y="1" width="92" height="126">
<path d="M18.8 1H109.3V127H18.8V1Z" fill="white"/>
</mask>
<g mask="url(#mask27_442_15)">
<path fill-rule="evenodd" clip-rule="evenodd" d="M74.2001 21.6C74.2001 23.6 72.7001 25.2 70.9001 25.2C69.1001 25.2 67.6001 23.6 67.6001 21.6C67.6001 19.6 69.1001 18 70.9001 18C72.7001 18 74.2001 19.6 74.2001 21.6Z" fill="black"/>
</g>
<mask id="mask28_442_15" style="mask-type:luminance" maskUnits="userSpaceOnUse" x="18" y="1" width="92" height="126">
<path d="M18.8 1H109.3V127H18.8V1Z" fill="white"/>
</mask>
<g mask="url(#mask28_442_15)">
<path fill-rule="evenodd" clip-rule="evenodd" d="M73.2001 22.4C73.2001 22.9 72.9001 23.3 72.4001 23.3C72.0001 23.3 71.6001 22.9 71.6001 22.4C71.6001 21.9 71.9001 21.5 72.4001 21.5C72.8001 21.5 73.2001 21.9 73.2001 22.4ZM58.4001 39C56.9001 42.5 59.2001 49.6 63.2001 44.4C62.9001 42.2 63.3001 40 63.4001 37.8L58.4001 39Z" fill="white"/>
</g>
<mask id="mask29_442_15" style="mask-type:luminance" maskUnits="userSpaceOnUse" x="18" y="1" width="92" height="126">
<path d="M18.8 1H109.3V127H18.8V1Z" fill="white"/>
</mask>
<g mask="url(#mask29_442_15)">
<path d="M60.5 46.6C59.8 46.6 59.1 46.2001 58.6 45.4001C57.5 43.8001 57.3 40.8001 58.1 38.9001L58.2 38.7001L63.7 37.3V37.7001L63.6 39.9001C63.5 41.4001 63.4 42.8 63.6 44.3V44.4001L63.5 44.5C62.5 45.9 61.5 46.6 60.5 46.6ZM58.7 39.3C58.1 41 58.3 43.7 59.2 45C59.6 45.6 60 45.9001 60.5 45.9001C61.2 45.9001 62 45.3 62.8 44.3C62.6 42.8 62.7 41.3001 62.9 39.9001L63 38.2001L58.7 39.3Z" fill="black"/>
</g>
<mask id="mask30_442_15" style="mask-type:luminance" maskUnits="userSpaceOnUse" x="18" y="1" width="92" height="126">
<path d="M18.8 1H109.3V127H18.8V1Z" fill="white"/>
</mask>
<g mask="url(#mask30_442_15)">
<path fill-rule="evenodd" clip-rule="evenodd" d="M58.9 32.2001C56.2 32.4001 54 35.7001 55.4 38.2001C57.3 41.6001 61.4 37.9001 64 38.2001C67 38.3001 69.4 41.4 71.8 38.8C74.5 35.9 70.6 33.1 67.7 31.8L58.9 32.2001Z" fill="#F6D2A2"/>
</g>
<mask id="mask31_442_15" style="mask-type:luminance" maskUnits="userSpaceOnUse" x="18" y="1" width="92" height="126">
<path d="M18.8 1H109.3V127H18.8V1Z" fill="white"/>
</mask>
<g mask="url(#mask31_442_15)">
<path d="M69.7001 40.2C68.8001 40.2 67.9001 39.8 67.0001 39.4C66.1001 39 65.1001 38.6 64.0001 38.6H63.7001C62.9001 38.6 62.0001 38.9 61.0001 39.3C59.9001 39.7 58.8001 40 57.8001 40C56.6001 40 55.7001 39.5 55.1001 38.4C54.4001 37.2 54.5001 35.8 55.2001 34.5C56.0001 33 57.4001 32.1 58.9001 31.9L67.8001 31.5H67.9001C70.1001 32.4 72.6001 34.1 73.1001 36.1C73.3001 37.1 73.0001 38.1 72.2001 39C71.4001 39.9 70.6001 40.2 69.7001 40.2ZM64.1001 38C65.2001 38 66.3001 38.5 67.3001 38.9C68.2001 39.3 69.0001 39.6 69.8001 39.6C70.5001 39.6 71.1001 39.3 71.7001 38.7C72.4001 38 72.6001 37.2 72.5001 36.4C72.1001 34.7 69.7001 33.1 67.8001 32.3L59.1001 32.7C57.8001 32.8 56.6001 33.7 55.9001 34.9C55.3001 36 55.3001 37.2 55.8001 38.2C56.3001 39.1 56.9001 39.5 57.9001 39.5C58.8001 39.5 59.8001 39.1 60.8001 38.8C61.9001 38.4 62.8001 38.1 63.8001 38.1C63.8001 37.9 63.9001 37.9 64.1001 38Z" fill="#231F20"/>
</g>
<mask id="mask32_442_15" style="mask-type:luminance" maskUnits="userSpaceOnUse" x="18" y="1" width="92" height="126">
<path d="M18.8 1H109.3V127H18.8V1Z" fill="white"/>
</mask>
<g mask="url(#mask32_442_15)">
<path fill-rule="evenodd" clip-rule="evenodd" d="M58.6001 32.1001C58.4001 27.4001 67.4001 26.8001 68.4001 30.7001C69.5001 34.7001 59.0001 35.6001 58.6001 32.1001Z" fill="black"/>
</g>
</svg>
